<svg width="16" height="16" viewBox="0 0 16 16" fill="none" xmlns="http://www.w3.org/2000/svg">
<g clip-path="url(#clip0_95_10515)">
<path d="M15.5302 12.4688C15.8231 12.7616 15.8231 13.2364 15.5302 13.5293L13.5302 15.5293L12.4697 14.4688L13.1884 13.75H2.81147L3.53022 14.4688L2.46967 15.5293L0.46967 13.5293C0.176777 13.2364 0.176777 12.7616 0.46967 12.4688L2.46967 10.4688L3.53022 11.5293L2.80951 12.25H13.1904L12.4697 11.5293L13.5302 10.4688L15.5302 12.4688ZM11.9999 0.75C12.9664 0.750031 13.7499 1.53352 13.7499 2.5V3.5H12.2499V2.5C12.2499 2.36195 12.138 2.25003 11.9999 2.25H8.74994L8.81693 9H11.0669V10.5H5.06693V9H7.31693L7.24994 2.25H3.99994C3.86187 2.25 3.74994 2.36193 3.74994 2.5V3.5H2.24994V2.5C2.24994 1.5335 3.03344 0.75 3.99994 0.75H11.9999Z" fill="white"/>
</g>
<defs>
<clipPath id="clip0_95_10515">
<rect width="16" height="16" fill="white"/>
</clipPath>
</defs>
</svg>
