<svg width="24" height="24" viewBox="0 0 24 24" fill="none" xmlns="http://www.w3.org/2000/svg">
<path d="M14.5996 4.00037C16.8355 4.00037 17.954 3.99983 18.8408 4.35095C20.1244 4.8592 21.1402 5.87594 21.6484 7.15955C21.9995 8.04634 22 9.16406 22 11.3998V12.6C22 14.8357 21.9995 15.9534 21.6484 16.8402C21.1402 18.1238 20.1244 19.1405 18.8408 19.6488C17.954 19.9999 16.8355 20.0004 14.5996 20.0004H9.40039C7.16452 20.0004 6.046 19.9999 5.15918 19.6488C3.87562 19.1405 2.85977 18.1238 2.35156 16.8402C2.00051 15.9534 2 14.8357 2 12.6V11.3998C2 9.16406 2.00046 8.04634 2.35156 7.15955C2.85978 5.87594 3.87559 4.8592 5.15918 4.35095C6.046 3.99983 7.16452 4.00037 9.40039 4.00037H14.5996ZM11.2109 7.15173C9.74648 6.21994 7.8304 7.27152 7.83008 9.0072V14.9926C7.83028 16.7284 9.74642 17.7799 11.2109 16.848L15.9131 13.8558C17.2716 12.9913 17.2716 11.0084 15.9131 10.1439L11.2109 7.15173Z" fill="#FD4E62"/>
<mask id="mask0_332_26033" style="mask-type:alpha" maskUnits="userSpaceOnUse" x="2" y="4" width="20" height="17">
<path d="M14.5996 4.00037C16.8355 4.00037 17.954 3.99983 18.8408 4.35095C20.1244 4.8592 21.1402 5.87594 21.6484 7.15955C21.9995 8.04634 22 9.16406 22 11.3998V12.6C22 14.8357 21.9995 15.9534 21.6484 16.8402C21.1402 18.1238 20.1244 19.1405 18.8408 19.6488C17.954 19.9999 16.8355 20.0004 14.5996 20.0004H9.40039C7.16452 20.0004 6.046 19.9999 5.15918 19.6488C3.87562 19.1405 2.85977 18.1238 2.35156 16.8402C2.00051 15.9534 2 14.8357 2 12.6V11.3998C2 9.16406 2.00046 8.04634 2.35156 7.15955C2.85978 5.87594 3.87559 4.8592 5.15918 4.35095C6.046 3.99983 7.16452 4.00037 9.40039 4.00037H14.5996ZM11.2109 7.15173C9.74648 6.21994 7.8304 7.27152 7.83008 9.0072V14.9926C7.83028 16.7284 9.74642 17.7799 11.2109 16.848L15.9131 13.8558C17.2716 12.9913 17.2716 11.0084 15.9131 10.1439L11.2109 7.15173Z" fill="#FD4E62"/>
</mask>
<g mask="url(#mask0_332_26033)">
<g filter="url(#filter0_i_332_26033)">
<rect x="2" y="4" width="20" height="16" rx="5" fill="url(#paint0_linear_332_26033)"/>
</g>
</g>
<defs>
<filter id="filter0_i_332_26033" x="2" y="4" width="20" height="17" filterUnits="userSpaceOnUse" color-interpolation-filters="sRGB">
<feFlood flood-opacity="0" result="BackgroundImageFix"/>
<feBlend mode="normal" in="SourceGraphic" in2="BackgroundImageFix" result="shape"/>
<feColorMatrix in="SourceAlpha" type="matrix" values="0 0 0 0 0 0 0 0 0 0 0 0 0 0 0 0 0 0 127 0" result="hardAlpha"/>
<feOffset dy="1"/>
<feGaussianBlur stdDeviation="0.5"/>
<feComposite in2="hardAlpha" operator="arithmetic" k2="-1" k3="1"/>
<feColorMatrix type="matrix" values="0 0 0 0 1 0 0 0 0 1 0 0 0 0 1 0 0 0 0.5 0"/>
<feBlend mode="normal" in2="shape" result="effect1_innerShadow_332_26033"/>
</filter>
<linearGradient id="paint0_linear_332_26033" x1="20.75" y1="4.75" x2="11.665" y2="18.0109" gradientUnits="userSpaceOnUse">
<stop stop-color="white"/>
<stop offset="1" stop-color="white" stop-opacity="0"/>
</linearGradient>
</defs>
</svg>
