<svg width="24" height="24" viewBox="0 0 24 24" fill="none" xmlns="http://www.w3.org/2000/svg">
<path d="M12 2.25C14.0711 2.25 15.75 3.92893 15.75 6V8.25H18.2305C20.1741 8.25 21.75 9.82591 21.75 11.7695V18.2305C21.75 20.1741 20.1741 21.75 18.2305 21.75H11.7695C9.82591 21.75 8.25 20.1741 8.25 18.2305V15.75H6C3.92893 15.75 2.25 14.0711 2.25 12V6C2.25 3.92893 3.92893 2.25 6 2.25H12ZM6 3.75C4.75736 3.75 3.75 4.75736 3.75 6V12C3.75 13.2426 4.75736 14.25 6 14.25H12C13.2426 14.25 14.25 13.2426 14.25 12V6C14.25 4.75736 13.2426 3.75 12 3.75H6Z" fill="white"/>
</svg>
