<svg width="24" height="24" viewBox="0 0 24 24" fill="none" xmlns="http://www.w3.org/2000/svg">
<path d="M11.8621 8.0703L12.2306 9.09336C12.6395 10.2292 13.5342 11.123 14.6701 11.5328L15.6932 11.9014C15.7858 11.9344 15.7858 12.0655 15.6932 12.0985L14.6701 12.467C13.5343 12.8758 12.6405 13.7705 12.2306 14.9065L11.8621 15.9295C11.8291 16.0221 11.698 16.0221 11.665 15.9295L11.2965 14.9065C10.8877 13.7707 9.99294 12.8769 8.85703 12.467L7.83397 12.0985C7.74138 12.0655 7.74138 11.9344 7.83397 11.9014L8.85703 11.5328C9.99283 11.124 10.8866 10.2293 11.2965 9.09336L11.665 8.0703C11.698 7.97771 11.8282 7.97771 11.8621 8.0703Z" fill="white"/>
<path d="M20.1244 6.96274C19.9145 6.61621 19.4644 6.50805 19.1169 6.71522C18.7704 6.92515 18.6604 7.37617 18.8694 7.7227C19.6486 9.00794 20.0593 10.4865 20.0593 12.0002C20.0593 16.5746 16.3376 20.2966 11.763 20.2966C10.9792 20.2966 10.2146 20.182 9.47666 19.9702L10.2045 19.62C10.5694 19.4449 10.7234 19.0058 10.5474 18.641C10.3732 18.2761 9.93319 18.1221 9.56833 18.2981L7.27655 19.4C7.09321 19.4889 6.95478 19.6494 6.89428 19.8437C6.83469 20.039 6.85853 20.2489 6.95937 20.4258L8.22626 22.6314C8.36193 22.8679 8.60853 22.9999 8.86336 22.9999C8.98712 22.9999 9.11271 22.9688 9.22822 22.9028C9.57932 22.7011 9.70124 22.2519 9.49864 21.9017L9.21996 21.4159C10.0432 21.6386 10.8939 21.7624 11.7639 21.7624C17.1477 21.7624 21.527 17.3824 21.527 11.9993C21.5261 10.219 21.0421 8.47618 20.1244 6.96274Z" fill="white"/>
<path d="M11.7622 3.70286C12.546 3.70286 13.3115 3.81745 14.0485 4.02921L13.3206 4.37939C12.9558 4.55449 12.8018 4.9936 12.9778 5.35845C13.1043 5.62064 13.3655 5.77372 13.6396 5.77372C13.7469 5.77372 13.8542 5.7508 13.9568 5.7013L16.2486 4.59941C16.432 4.51049 16.5704 4.35006 16.6309 4.15572C16.6914 3.96138 16.6685 3.75053 16.5667 3.5736L15.2998 1.368C15.0991 1.01689 14.6508 0.895893 14.2988 1.09758C13.9477 1.29925 13.8258 1.74843 14.0284 2.09862L14.307 2.58448C13.4838 2.36172 12.6331 2.23795 11.7631 2.23795C6.37934 2.23795 2 6.618 2 12.0011C2 13.7822 2.48494 15.525 3.40258 17.0385C3.54009 17.2658 3.78302 17.3914 4.03054 17.3914C4.16071 17.3914 4.29089 17.3565 4.41006 17.285C4.75659 17.0751 4.86658 16.6241 4.65758 16.2776C3.87837 14.9923 3.46768 13.5138 3.46768 12.0001C3.46677 7.42477 7.18855 3.70286 11.7622 3.70286Z" fill="white"/>
</svg>
