<svg width="24" height="24" viewBox="0 0 24 24" fill="none" xmlns="http://www.w3.org/2000/svg">
<path d="M15.5 3C18.5376 3 21 5.46243 21 8.5V15.5C21 18.5376 18.5376 21 15.5 21H8.5C5.46243 21 3 18.5376 3 15.5V8.5C3 5.46243 5.46243 3 8.5 3H15.5ZM8.5 4.5C6.29086 4.5 4.5 6.29086 4.5 8.5V15.5C4.5 17.7091 6.29086 19.5 8.5 19.5H15.5C17.7091 19.5 19.5 17.7091 19.5 15.5V8.5C19.5 6.29086 17.7091 4.5 15.5 4.5H8.5Z" fill="white" fill-opacity="0.45"/>
<rect x="4.5" y="4.5" width="15" height="15" rx="4" fill="#26262C"/>
</svg>
